<?xml version="1.0" encoding="UTF-8" standalone="no"?>
<svg width="24px" height="24px" viewBox="0 0 24 24" version="1.1" xmlns="http://www.w3.org/2000/svg" xmlns:xlink="http://www.w3.org/1999/xlink">
    <!-- Generator: Sketch 47.1 (45422) - http://www.bohemiancoding.com/sketch -->
    <title>BarGraph</title>
    <desc>Created with Sketch.</desc>
    <defs></defs>
    <g id="Material-Design-Symbols" stroke="none" stroke-width="1" fill="none" fill-rule="evenodd">
        <g id="BarGraph">
            <g id="Ovel">
                <g transform="translate(0.000000, 0.119520)"></g>
            </g>
            <path d="M11.563,21.35664 C5.74,21.35664 1.003,16.81008 1.003,11.22 C1.003,5.62992 5.74,1.0824 11.563,1.0824 C17.385,1.0824 22.123,5.62992 22.123,11.22 C22.123,16.81008 17.385,21.35664 11.563,21.35664 M11.563,0.11952 C5.188,0.11952 0,5.09904 0,11.22 C0,17.34 5.188,22.31952 11.563,22.31952 C17.939,22.31952 23.126,17.34 23.126,11.22 C23.126,5.09904 17.939,0.11952 11.563,0.11952" id="Fill-1" fill="#757575"></path>
            <path d="M6.168,11.403104 C5.823,11.403104 5.542,11.672864 5.542,12.004064 L5.542,16.368224 C5.542,16.699424 5.823,16.969184 6.168,16.969184 C6.513,16.969184 6.794,16.699424 6.794,16.368224 L6.794,12.004064 C6.794,11.672864 6.513,11.403104 6.168,11.403104" id="Fill-4" fill="#757575"></path>
            <path d="M8.3257,7.17968 C7.9807,7.17968 7.6997,7.44944 7.6997,7.78064 L7.6997,16.3688 C7.6997,16.7 7.9807,16.96976 8.3257,16.96976 C8.6707,16.96976 8.9517,16.7 8.9517,16.3688 L8.9517,7.78064 C8.9517,7.44944 8.6707,7.17968 8.3257,7.17968" id="Fill-6" fill="#757575"></path>
            <path d="M10.4834,5.148608 C10.1384,5.148608 9.8574,5.418368 9.8574,5.749568 L9.8574,16.369088 C9.8574,16.699328 10.1384,16.969088 10.4834,16.969088 C10.8284,16.969088 11.1094,16.699328 11.1094,16.369088 L11.1094,5.749568 C11.1094,5.418368 10.8284,5.148608 10.4834,5.148608" id="Fill-8" fill="#757575"></path>
            <path d="M12.6416,8.869088 C12.2956,8.869088 12.0146,9.138848 12.0146,9.470048 L12.0146,16.368608 C12.0146,16.699808 12.2956,16.969568 12.6416,16.969568 C12.9866,16.969568 13.2676,16.699808 13.2676,16.368608 L13.2676,9.470048 C13.2676,9.138848 12.9866,8.869088 12.6416,8.869088" id="Fill-10" fill="#757575"></path>
            <path d="M16.957,13.373312 C16.611,13.373312 16.33,13.643072 16.33,13.975232 L16.33,16.368512 C16.33,16.699712 16.611,16.969472 16.957,16.969472 C17.302,16.969472 17.583,16.699712 17.583,16.368512 L17.583,13.975232 C17.583,13.643072 17.302,13.373312 16.957,13.373312" id="Fill-12" fill="#757575"></path>
            <path d="M14.7979,5.148608 C14.4529,5.148608 14.1719,5.418368 14.1719,5.749568 L14.1719,16.369088 C14.1719,16.699328 14.4529,16.969088 14.7979,16.969088 C15.1439,16.969088 15.4249,16.699328 15.4249,16.369088 L15.4249,5.749568 C15.4249,5.418368 15.1439,5.148608 14.7979,5.148608" id="Fill-14" fill="#757575"></path>
        </g>
    </g>
</svg>