<?xml version="1.0" encoding="UTF-8" standalone="no"?>
<svg width="24px" height="24px" viewBox="0 0 24 24" version="1.1" xmlns="http://www.w3.org/2000/svg" xmlns:xlink="http://www.w3.org/1999/xlink">
    <!-- Generator: Sketch 47.1 (45422) - http://www.bohemiancoding.com/sketch -->
    <title>CS</title>
    <desc>Created with Sketch.</desc>
    <defs></defs>
    <g id="Material-Design-Symbols" stroke="none" stroke-width="1" fill="none" fill-rule="evenodd" fill-opacity="0.541326993">
        <g id="CS" fill="#000000">
            <path d="M11.8125,22.065984 C5.8585,22.065984 1.0135,17.415744 1.0135,11.699904 C1.0135,5.983104 5.8585,1.332864 11.8125,1.332864 C17.7665,1.332864 22.6105,5.983104 22.6105,11.699904 C22.6105,17.415744 17.7665,22.065984 11.8125,22.065984 M11.8125,0.359424 C5.2985,0.359424 -0.0005,5.446464 -0.0005,11.699904 C-0.0005,17.953344 5.2985,23.040384 11.8125,23.040384 C18.3265,23.040384 23.6255,17.953344 23.6255,11.699904 C23.6255,5.446464 18.3265,0.359424 11.8125,0.359424" id="Fill-1"></path>
            <path d="M16.0449,13.08192 L16.0449,11.07744 C16.5239,11.22816 16.8719,11.616 16.8719,12.08064 C16.8719,12.54432 16.5239,12.9312 16.0449,13.08192 L16.0449,13.08192 Z M13.0469,15.26112 C13.0469,15.23232 13.0719,15.20832 13.1019,15.20832 C13.1319,15.20832 13.1569,15.23136 13.1569,15.26112 C13.1569,15.31872 13.0469,15.32064 13.0469,15.26112 L13.0469,15.26112 Z M7.5789,13.08192 C7.0999,12.9312 6.7519,12.54432 6.7519,12.08064 C6.7519,11.616 7.0999,11.22816 7.5789,11.07744 L7.5789,13.08192 Z M15.9419,10.05984 C15.5259,8.2368 13.8349,6.86496 11.8129,6.86496 C9.7899,6.86496 8.0989,8.2368 7.6819,10.05984 C6.5859,10.20192 5.7379,11.04864 5.7379,12.08064 C5.7379,13.21056 6.7529,14.12928 8.0009,14.12928 C8.0169,14.12928 8.0289,14.12256 8.0439,14.12064 C8.0589,14.12256 8.0709,14.12928 8.0869,14.12928 C8.3659,14.12928 8.5939,13.9104 8.5939,13.64256 L8.5939,10.92864 C8.5939,9.22464 10.0379,7.83936 11.8129,7.83936 C13.5869,7.83936 15.0309,9.22464 15.0309,10.92864 L15.0309,13.64256 C15.0309,13.66944 15.0429,13.69248 15.0469,13.7184 C15.0419,13.7472 15.0299,13.77408 15.0299,13.8048 C15.0309,13.88832 14.9959,14.55744 14.0159,14.76 C13.8299,14.4528 13.4979,14.23488 13.1019,14.23488 C12.5129,14.23488 12.0329,14.69568 12.0329,15.26112 C12.0329,15.82656 12.5129,16.28736 13.1019,16.28736 C13.5109,16.28736 13.8569,16.05792 14.0359,15.73248 C15.4919,15.51168 15.9019,14.5872 16.0059,14.09472 C17.0709,13.92864 17.8859,13.09152 17.8859,12.08064 C17.8859,11.04864 17.0379,10.20192 15.9419,10.05984 L15.9419,10.05984 Z" id="Fill-4"></path>
        </g>
    </g>
</svg>