<?xml version="1.0" encoding="UTF-8" standalone="no"?>
<svg width="38px" height="37px" viewBox="0 0 38 37" version="1.1" xmlns="http://www.w3.org/2000/svg" xmlns:xlink="http://www.w3.org/1999/xlink">
    <!-- Generator: Sketch 47.1 (45422) - http://www.bohemiancoding.com/sketch -->
    <title>Others/Black/sysmbol</title>
    <desc>Created with Sketch.</desc>
    <defs></defs>
    <g id="Material-Design-Symbols" stroke="none" stroke-width="1" fill="none" fill-rule="evenodd" fill-opacity="0.87">
        <g id="Nav/Logedin/InternalUser" transform="translate(-24.000000, -13.000000)" fill="#000000">
            <g id="TopNavBar" transform="translate(24.000000, 12.000000)">
                <g id="Others/Black/sysmbol" transform="translate(0.000000, 1.000000)">
                    <g id="Blueplate_sysbol" transform="translate(0.633333, 0.633333)">
                        <path d="M18.2223842,33.3047639 C9.7169134,33.3047639 2.79703505,26.4382544 2.79703505,17.997834 C2.79703505,9.60051905 9.7169134,2.76849388 18.2223842,2.76849388 C26.727855,2.76849388 33.6473546,9.60051905 33.6473546,17.997834 C33.6473546,26.4382544 26.727855,33.3047639 18.2223842,33.3047639 M18.2223842,0 C8.1744921,0 0,8.07383673 0,17.997834 C0,27.9645619 8.1744921,36.0732578 18.2223842,36.0732578 C28.2702763,36.0732578 36.4443897,27.9645619 36.4443897,17.997834 C36.4443897,8.07383673 28.2702763,0 18.2223842,0" id="Fill-1"></path>
                        <path d="M21.8788199,8.99723673 C20.703732,8.50545986 19.4116275,8.23333333 18.0555237,8.23333333 C16.6994199,8.23333333 15.4073155,8.50545986 14.2322275,8.99723673 C13.0571395,9.48938844 11.999068,10.2011905 11.1098942,11.0809163 C10.2214777,11.9606422 9.50233746,13.0082918 9.00511203,14.1713891 C8.50826529,15.3344864 8.23333333,16.6130313 8.23333333,17.9552973 C8.23333333,19.2975633 8.50826529,20.576483 9.00511203,21.7395803 C9.28458832,22.3936585 9.63412302,23.0110034 10.0446275,23.582619 C10.5494268,24.2850503 11.5673567,24.3772585 12.1831134,23.767785 C12.6750371,23.280881 12.7204804,22.5222252 12.3205794,21.9622293 C12.031257,21.5577878 11.7851058,21.1214857 11.5878062,20.6596952 C11.2325911,19.8283224 11.0360488,18.9144871 11.0360488,17.9552973 C11.0360488,16.9961075 11.2325911,16.0822721 11.5878062,15.2508993 C11.9430213,14.4199014 12.4569093,13.671366 13.0919794,13.0427762 C13.7270495,12.4141864 14.4836804,11.9055422 15.3232454,11.5539517 C16.163189,11.2023612 17.0864454,11.0078245 18.0555237,11.0078245 C19.0246021,11.0078245 19.9478584,11.2023612 20.7878021,11.5539517 C21.627367,11.9055422 22.3836192,12.4141864 23.0186893,13.0427762 C23.6537595,13.671366 24.1680261,14.4199014 24.5232412,15.2508993 C24.8780777,16.0822721 25.0746199,16.9961075 25.0746199,17.9552973 C25.0746199,18.9144871 24.8780777,19.8283224 24.5232412,20.6596952 C24.1680261,21.491068 23.6537595,22.2396034 23.0186893,22.8681932 C22.3836192,23.496783 21.627367,24.0054272 20.7878021,24.3570177 C19.9478584,24.7086082 19.0246021,24.9027701 18.0555237,24.9027701 C17.4935416,24.9027701 16.9470859,24.8375497 16.4237306,24.7142306 C15.763288,24.5586762 15.0880763,24.9083925 14.8237478,25.5272367 C14.4833017,26.3252497 14.9585629,27.2252163 15.8110034,27.4223769 C16.5320371,27.5891762 17.2833663,27.6772612 18.0555237,27.6772612 C19.4116275,27.6772612 20.703732,27.4055095 21.8788199,26.9133578 C23.0539079,26.421581 24.1119794,25.7094041 25.0007746,24.8300531 C25.8895698,23.9503272 26.60871,22.9030524 27.1059354,21.7395803 C27.6027821,20.576483 27.8777141,19.2975633 27.8777141,17.9552973 C27.8777141,16.6130313 27.6027821,15.3344864 27.1059354,14.1713891 C26.60871,13.0082918 25.8895698,11.9606422 25.0007746,11.0809163 C24.1119794,10.2011905 23.0539079,9.48938844 21.8788199,8.99723673 Z" id="Fill-4"></path>
                    </g>
                </g>
            </g>
        </g>
    </g>
</svg>