<?xml version="1.0" encoding="UTF-8" standalone="no"?>
<svg width="50px" height="31px" viewBox="0 0 50 31" version="1.1" xmlns="http://www.w3.org/2000/svg" xmlns:xlink="http://www.w3.org/1999/xlink">
    <!-- Generator: Sketch 47.1 (45422) - http://www.bohemiancoding.com/sketch -->
    <title>Others/Black/OrderDish</title>
    <desc>Created with Sketch.</desc>
    <defs></defs>
    <g id="Material-Design-Symbols" stroke="none" stroke-width="1" fill="none" fill-rule="evenodd">
        <g id="Nav/Logedin/InternalUser" transform="translate(-1138.000000, -18.000000)">
            <g id="TopNavBar" transform="translate(24.000000, 12.000000)"></g>
            <g id="Others/Black/StuffCases" opacity="0.54" transform="translate(1136.000000, 15.000000)">
                <g id="Others/StaffCase" transform="translate(2.000000, 3.000000)" stroke-width="1" fill-rule="evenodd">
                    <g id="StaffCase">
                        <path d="M3.6627907,21 C3.29693023,21 3,21.448 3,22 C3,22.552 3.29693023,23 3.6627907,23 L21.3372093,23 C21.7030698,23 22,22.552 22,22 C22,21.448 21.7030698,21 21.3372093,21 L3.6627907,21 Z" id="Fill-1" fill-opacity="0.87" fill="#000000"></path>
                        <path d="M3.6627907,24 C3.29693023,24 3,24.448 3,25 C3,25.552 3.29693023,26 3.6627907,26 L21.3372093,26 C21.7030698,26 22,25.552 22,25 C22,24.448 21.7030698,24 21.3372093,24 L3.6627907,24 Z" id="Fill-3" fill-opacity="0.87" fill="#000000"></path>
                        <rect id="Rectangle" stroke-opacity="0.87" stroke="#000000" stroke-width="2" x="1" y="3" width="23" height="26" rx="3"></rect>
                        <circle id="Oval" fill-opacity="0.87" fill="#000000" cx="12" cy="3" r="3"></circle>
                    </g>
                </g>
                <circle id="Oval-5" fill="#000000" fill-rule="evenodd" cx="37" cy="19" r="15"></circle>
                <text id="0" font-family="Quicksand-Medium, Quicksand" font-size="14" font-weight="400" fill="#FFFFFF">
                    <tspan x="33.258" y="24">0</tspan>
                </text>
            </g>
        </g>
    </g>
</svg>