<?xml version="1.0" encoding="UTF-8" standalone="no"?>
<svg width="25px" height="24px" viewBox="0 0 25 24" version="1.1" xmlns="http://www.w3.org/2000/svg" xmlns:xlink="http://www.w3.org/1999/xlink">
    <!-- Generator: Sketch 47.1 (45422) - http://www.bohemiancoding.com/sketch -->
    <title>RelationshipM</title>
    <desc>Created with Sketch.</desc>
    <defs></defs>
    <g id="Material-Design-Symbols" stroke="none" stroke-width="1" fill="none" fill-rule="evenodd">
        <g id="RelationshipM" fill="#757575">
            <g id="RM">
                <path d="M12.5625,22.4062 C7.1995,22.4062 2.7455,18.4882 1.8815,13.3672 L3.1815,13.7942 L3.5095,12.9482 L5.8505,13.8582 L6.1925,13.0582 C6.3795,13.1952 6.6305,13.3852 6.9325,13.6192 C6.7875,13.8012 6.7175,14.0282 6.7365,14.2652 C6.7555,14.5192 6.8755,14.7472 7.0725,14.9102 C7.1965,15.0102 7.3375,15.0782 7.4845,15.1112 C7.4615,15.2102 7.4535,15.3152 7.4595,15.4212 C7.4815,15.7032 7.6115,15.9622 7.8265,16.1482 C8.0805,16.3672 8.4035,16.4452 8.7085,16.3932 C8.7585,16.5722 8.8565,16.7432 9.0045,16.8792 C9.2515,17.1092 9.5825,17.1982 9.8915,17.1502 C9.9395,17.3172 10.0305,17.4782 10.1665,17.6072 C10.5425,17.9652 11.1275,17.9782 11.5185,17.6582 L11.7845,17.9122 C11.9925,18.1132 12.2655,18.2192 12.5455,18.2192 C12.6655,18.2192 12.7855,18.1992 12.9005,18.1612 C13.1475,18.0772 13.3455,17.9192 13.4725,17.7132 C13.5895,17.7512 13.7095,17.7752 13.8325,17.7822 C14.2295,17.8032 14.7945,17.6772 15.2545,16.9562 C15.3795,16.9592 15.5115,16.9492 15.6405,16.9182 C16.1205,16.8072 16.5005,16.4762 16.6755,16.0262 C16.7235,16.0212 16.7715,16.0162 16.8195,16.0052 C17.2055,15.9242 17.5115,15.6532 17.6435,15.2812 C17.7295,15.0352 17.7175,14.7712 17.6195,14.5392 L18.9325,14.1222 L19.0465,14.3922 L21.6895,13.3622 L21.9725,14.0462 L23.2065,13.6102 C22.2455,18.6132 17.8405,22.4062 12.5625,22.4062 L12.5625,22.4062 Z M3.2495,6.0362 L5.1885,6.6302 L2.8125,13.1572 L1.7955,12.8072 C1.7495,12.3982 1.7185,11.9842 1.7185,11.5622 C1.7185,9.5422 2.2845,7.6562 3.2495,6.0362 L3.2495,6.0362 Z M12.5625,0.7192 C16.3685,0.7192 19.7165,2.6942 21.6525,5.6692 L18.9035,6.6262 L19.2725,7.5152 L17.0305,8.4592 L13.8415,7.7042 C13.3025,7.5942 12.7705,7.5172 12.1985,7.7662 L11.3695,8.1332 C9.9345,7.8262 8.2985,7.9132 7.8955,7.9392 L5.8015,7.0572 L6.0915,6.3122 L3.5805,5.4952 C5.5315,2.6152 8.8295,0.7192 12.5625,0.7192 L12.5625,0.7192 Z M17.5365,9.0272 L19.5455,8.1812 L21.4165,12.6992 L19.4355,13.4702 L17.5365,9.0272 Z M15.6075,11.9592 L13.6715,9.8962 L13.4345,10.0092 C11.2375,11.0552 10.3445,11.2522 10.1765,11.2112 C10.1145,11.1802 10.0835,11.1012 10.1045,11.0272 L10.4375,9.8802 C10.5545,9.4772 10.8425,9.1492 11.2255,8.9812 L12.4885,8.4262 C12.8355,8.2722 13.1565,8.2992 13.6865,8.4062 L16.8025,9.1442 L18.6495,13.4592 L17.1765,13.9262 L15.6075,11.9592 Z M5.4645,12.9382 L3.7705,12.2802 L5.5415,7.7262 L7.3645,8.4952 L5.4645,12.9382 Z M7.8655,14.3562 C7.7665,14.4332 7.6275,14.4352 7.5275,14.3542 C7.4665,14.3042 7.4555,14.2422 7.4535,14.2082 C7.4505,14.1772 7.4535,14.1172 7.4985,14.0622 C7.6165,14.1552 7.7385,14.2542 7.8655,14.3562 L7.8655,14.3562 Z M9.0095,15.3222 L8.7755,15.5762 C8.6485,15.7152 8.4375,15.7272 8.2955,15.6052 C8.2265,15.5432 8.1835,15.4612 8.1785,15.3682 C8.1715,15.2762 8.2005,15.1882 8.2595,15.1192 L8.4785,14.8672 C8.6505,15.0132 8.8285,15.1642 9.0095,15.3222 L9.0095,15.3222 Z M10.0495,16.2542 L9.9705,16.3382 C9.8435,16.4742 9.6295,16.4792 9.4945,16.3542 C9.3575,16.2272 9.3505,16.0112 9.4745,15.8762 L9.5465,15.7972 C9.7115,15.9452 9.8795,16.0982 10.0495,16.2542 L10.0495,16.2542 Z M10.9885,17.1472 C10.8805,17.1902 10.7505,17.1722 10.6635,17.0882 C10.5745,17.0022 10.5475,16.8722 10.5905,16.7612 C10.7085,16.8772 10.8285,16.9922 10.9485,17.1092 L10.9885,17.1472 Z M15.7725,15.6792 C15.8325,15.7442 15.8995,15.7992 15.9715,15.8462 C15.8715,16.0342 15.6985,16.1682 15.4805,16.2192 C15.2135,16.2802 14.9415,16.1962 14.7515,16.0002 L12.5905,13.7412 L12.0715,14.2372 L14.2325,16.4962 C14.3215,16.5922 14.4215,16.6712 14.5265,16.7382 C14.3345,16.9702 14.1205,17.0812 13.8705,17.0632 C13.6865,17.0542 13.4945,16.9562 13.3505,16.7962 L11.5635,14.8092 L11.0295,15.2912 L12.8165,17.2742 C12.8315,17.2942 12.8475,17.3102 12.8645,17.3272 C12.8095,17.4232 12.7175,17.4642 12.6725,17.4782 C12.5345,17.5262 12.3875,17.4952 12.2825,17.3942 L11.4485,16.5922 C9.2495,14.4382 7.1725,12.8812 6.4825,12.3802 L8.0805,8.6482 C8.4855,8.6272 9.4055,8.5982 10.3565,8.7012 C10.0715,8.9622 9.8605,9.2972 9.7485,9.6782 L9.4155,10.8252 C9.2945,11.2382 9.4815,11.6712 9.8605,11.8582 C10.0565,11.9542 10.5115,12.1772 13.5065,10.7702 L15.0535,12.4162 L16.9155,14.7502 C16.9825,14.8342 16.9995,14.9432 16.9655,15.0452 C16.8965,15.2362 16.7355,15.2892 16.6685,15.3022 C16.5295,15.3342 16.3925,15.2892 16.3015,15.1932 L14.2965,12.9432 L13.7605,13.4232 L15.7725,15.6792 Z M23.3325,12.7912 L22.3565,13.1172 L19.8405,7.0392 L22.0345,6.2982 C22.9055,7.8582 23.4065,9.6522 23.4065,11.5622 C23.4065,11.9782 23.3775,12.3872 23.3325,12.7912 L23.3325,12.7912 Z M12.5625,0.0002 C6.1865,0.0002 0.9995,5.1872 0.9995,11.5622 C0.9995,17.9372 6.1865,23.1252 12.5625,23.1252 C18.9385,23.1252 24.1255,17.9372 24.1255,11.5622 C24.1255,5.1872 18.9385,0.0002 12.5625,0.0002 L12.5625,0.0002 Z" id="Fill-1"></path>
            </g>
        </g>
    </g>
</svg>